<svg width="23" height="23" xmlns="http://www.w3.org/2000/svg"><g fill="#FFF"><circle cx="11.5" cy="11.5" r="2.286"/><path d="M20.753 9.253a2.251 2.251 0 00-2.144 1.573h-1.494a5.629 5.629 0 00-1.17-2.818l2.406-2.406a2.24 2.24 0 001.04.254c.6 0 1.165-.234 1.59-.658.424-.425.658-.989.658-1.59 0-.6-.234-1.164-.658-1.588a2.233 2.233 0 00-1.59-.659 2.251 2.251 0 00-1.993 3.287l-2.406 2.407a5.629 5.629 0 00-2.818-1.17V4.39a2.251 2.251 0 001.573-2.144A2.25 2.25 0 0011.5 0a2.25 2.25 0 00-2.247 2.247 2.25 2.25 0 001.573 2.144v1.494a5.666 5.666 0 00-4.941 4.941H4.39a2.251 2.251 0 00-2.144-1.573A2.25 2.25 0 000 11.5a2.25 2.25 0 002.247 2.247 2.251 2.251 0 002.144-1.573h1.494a5.629 5.629 0 001.17 2.818l-1.309 1.309a2.702 2.702 0 00-3.277.416 2.68 2.68 0 00-.79 1.907c0 .72.28 1.398.79 1.907a2.689 2.689 0 001.907.789c.69 0 1.381-.263 1.907-.79.51-.509.79-1.186.79-1.906 0-.49-.13-.96-.373-1.37l1.308-1.309a5.629 5.629 0 002.818 1.17v1.494a2.251 2.251 0 00-1.573 2.144A2.25 2.25 0 0011.5 23a2.25 2.25 0 002.247-2.247 2.251 2.251 0 00-1.573-2.144v-1.494a5.628 5.628 0 002.818-1.17l1.058 1.058a2.236 2.236 0 00-.255 1.04c0 .6.234 1.164.658 1.589.425.424.99.658 1.59.658.6 0 1.164-.234 1.589-.658a2.25 2.25 0 000-3.179 2.233 2.233 0 00-1.59-.658 2.24 2.24 0 00-1.04.255l-1.057-1.058a5.629 5.629 0 001.17-2.818h1.494a2.251 2.251 0 002.144 1.573A2.25 2.25 0 0023 11.5a2.25 2.25 0 00-2.247-2.247zM11.5 15.134A3.638 3.638 0 017.866 11.5 3.638 3.638 0 0111.5 7.866a3.638 3.638 0 013.634 3.634 3.638 3.638 0 01-3.634 3.634z"/></g></svg>