<svg xmlns="http://www.w3.org/2000/svg" width="34" height="33.789"><g fill="#2945ab"><path d="M11.95 15.803a.5.5 0 00-.5.5v2.267a.505.505 0 101.01 0v-2.267a.5.5 0 00-.51-.5z"/><path data-name="Path" d="M22.354 19.075a.5.5 0 00.5-.5v-2.272a.5.5 0 00-1 0v2.267a.5.5 0 00.5.505z"/><path d="M19.337 33.789h-4.361A4.69 4.69 0 0110.89 31.4l-.056-.1a12.514 12.514 0 01-4.4-4.4 12.351 12.351 0 01-1.574-4.414c-.154.015-.3.023-.443.023a4.417 4.417 0 110-8.834c.093 0 .192 0 .293.01v-1.239a12.445 12.445 0 1124.89 0v1.228a4.417 4.417 0 01-.02 8.834h-.131a12.35 12.35 0 01-1.571 4.392 12.51 12.51 0 01-4.4 4.4l-.056.1a4.69 4.69 0 01-4.085 2.389zM8.208 23.942a.505.505 0 01.5.5v1.006L11.77 30.9a3.681 3.681 0 003.206 1.876h4.362a3.68 3.68 0 003.2-1.876l3.058-5.45v-4.442l-8.445-1.034-8.438 1.034v1.418a.505.505 0 01-1.01 0v-1.717l-1.982-3.092v2.96a11.416 11.416 0 003.946 8.643l-1.9-3.388a.508.508 0 01-.064-.247v-1.138a.505.505 0 01.505-.505zm20.384-6.325l-1.981 3.092v4.875a.508.508 0 01-.065.247l-1.9 3.387a11.416 11.416 0 003.946-8.642zm1.168.122c-.052 0-.105 0-.159.006v2.832c0 .3-.011.6-.035.922h.015a3.408 3.408 0 00.02-6.815v2.05h.133a2.156 2.156 0 012.089 1.275.506.506 0 01-.261.665.513.513 0 01-.2.041.505.505 0 01-.463-.3 1.151 1.151 0 00-1.138-.677zM4.417 14.684a3.408 3.408 0 000 6.815c.1 0 .21-.005.329-.016a12.743 12.743 0 01-.034-.906v-2.833c-.05 0-.1-.006-.158-.006a1.151 1.151 0 00-1.138.672.505.505 0 01-.464.3.513.513 0 01-.2-.041.506.506 0 01-.261-.665 2.155 2.155 0 012.089-1.275h.133V14.7a2.876 2.876 0 00-.296-.016zm12.74 4.276a.555.555 0 01.061 0l8.634 1.058 2.74-4.277v-1.032a37.043 37.043 0 01-11.82-1.861.505.505 0 11.334-.953 36.057 36.057 0 0011.486 1.8v-1.249a11.443 11.443 0 00-9.263-11.23 11.446 11.446 0 00-13.608 11.23v1.026a7.976 7.976 0 002.634-1.922 4.9 4.9 0 001.4-3.14.5.5 0 01.9-.319 7.344 7.344 0 001.039.958 16.862 16.862 0 003.461 2.063.505.505 0 11-.418.919 16.91 16.91 0 01-4.1-2.55 6.56 6.56 0 01-1.525 2.741 8.847 8.847 0 01-3.386 2.343v1.18l2.741 4.277 8.633-1.058a.555.555 0 01.057-.003z"/></g></svg>