<svg xmlns="http://www.w3.org/2000/svg" width="34" height="34"><path d="M20.74 16.706a.508.508 0 10-.719.718l7.451 7.427a.509.509 0 00.36.148h.035a.51.51 0 00.371-.2A13.488 13.488 0 0031 16.582a13.57 13.57 0 00-3.607-9.226A13.652 13.652 0 0018.554 3a.508.508 0 10-.09 1.013 12.635 12.635 0 018.181 4.03 12.562 12.562 0 013.338 8.539 12.47 12.47 0 01-2.213 7.13z" fill="#162d80"/><path data-name="Path" d="M16.512 4.466A.5.5 0 0015.977 4 12.9 12.9 0 009.2 6.721a.524.524 0 00-.051.77l9.011 9.359a.479.479 0 00.7 0 .525.525 0 000-.723l-8.61-8.934a11.911 11.911 0 015.815-2.172.506.506 0 00.447-.555z" fill="#162d80"/><path d="M16.625 31A13.625 13.625 0 015.723 9.2a.507.507 0 01.369-.2h.035a.5.5 0 01.359.149l18.365 18.364a.507.507 0 01-.054.765A13.508 13.508 0 0116.625 31zM6.191 10.288a12.612 12.612 0 0010.434 19.7 12.527 12.527 0 007.087-2.177z" fill="#162d80"/><path data-name="Path" d="M29.021 4.985A17.01 17.01 0 004.59 28.653 16.925 16.925 0 0015.8 34a.5.5 0 00.069-1A16.027 16.027 0 015.683 5.691a16.013 16.013 0 0123 22.279A15.932 15.932 0 0118.128 33a.5.5 0 00.034 1h.038A17.026 17.026 0 0029.021 4.985z" fill="#162d80"/></svg>