<svg xmlns="http://www.w3.org/2000/svg" width="37.383" height="37.381"><g fill="#003188"><path d="M21.09 37.381h-.075a.587.587 0 01-.572-.459 29.617 29.617 0 00-1.822-5.367 13.59 13.59 0 01-3.248.516 1.493 1.493 0 01-.431-.043c-.918-.32-2.227-1.241-2.071-2.464a6.19 6.19 0 01.251-1.168 1.7 1.7 0 00.05-.172 2.247 2.247 0 00-.391-.316c-.232-.154-.621-.412-.5-.876a3.6 3.6 0 01.54-.973l.054-.08c.063-.092.134-.2.191-.291l-.158-.1-.03-.019c-.765-.476-1.633-1.015-1.223-1.733a2.859 2.859 0 00.207-.856c-.15-.062-.377-.136-.542-.191l-.042-.014a3.094 3.094 0 01-.986-.438 1.874 1.874 0 01-.376-2.137l.108-.189a27.716 27.716 0 001.849-3.569 2.464 2.464 0 00-.409-.625 4.284 4.284 0 01-.205-.266c-.408-.551-.262-5.04-.207-6.401v-.079c.044-1.024.89-2.534 2.515-4.486A12.541 12.541 0 0118.478.9a12.377 12.377 0 014.709-.9c.251 0 .507.007.76.021a15.853 15.853 0 018.433 3.066c3.71 2.96 4.719 7.851 4.427 11.441-.134 1.606-1.272 4.5-2.275 7.046l-.057.144a24.417 24.417 0 00-1.3 3.722 6.507 6.507 0 00.654 3.341 6.624 6.624 0 001.574 1.066h.008c1.025.578 1.834 1.035 1.963 1.686l-.012.011a.584.584 0 01-.438.7.583.583 0 01-.441-.074.589.589 0 01-.26-.365 6.366 6.366 0 00-1.4-.931 6.76 6.76 0 01-1.93-1.372c-.85-1.09-.935-3.338-.9-4.112a20.03 20.03 0 011.43-4.24c.925-2.35 2.076-5.275 2.2-6.716.1-1.132.356-6.957-3.992-10.427A14.52 14.52 0 0023.162 1.2a10.963 10.963 0 00-8.691 4.139C13.09 7 12.275 8.387 12.237 9.134a49.408 49.408 0 00.032 5.8l.129.178a2.357 2.357 0 01.665 1.378c0 .291-.153.824-2 4.115l-.105.187a.813.813 0 00-.02.347.8.8 0 00.128.324 5.881 5.881 0 00.584.21h.01c.745.244 1.284.42 1.368.935a3.689 3.689 0 01-.21 1.513c.173.135.462.312.654.429l.052.032a3.422 3.422 0 01.619.424c.474.474.069 1.08-.323 1.666l-.024.036-.22.324a1.785 1.785 0 01.71.832 1.3 1.3 0 01-.041.876 4.827 4.827 0 00-.208.96c-.055.426.623.977 1.267 1.206a13.7 13.7 0 003.148-.517.631.631 0 01.264-.114.648.648 0 01.113-.01.612.612 0 01.175.025c.237.073.533.164 1.4 2.488a31.432 31.432 0 011.188 3.907.585.585 0 01-.444.7z"/><path data-name="Shape" d="M1.588 37.382a.585.585 0 01-.541-.356c-.015-.038-.369-.844-.876-2.044-.529-1.254.283-4.38.814-6.133a1.2 1.2 0 01.242-.77c.974-3.03 2.304-5.984 2.895-6.454a1.377 1.377 0 01.908-.343 1.375 1.375 0 01.639.158 2.22 2.22 0 01.877 2.275 13.619 13.619 0 01-.9 3.372l-.079.226c-.129.367-.275.783-.435 1.266a7.427 7.427 0 01.73 1.136l.122.228.006.011.342.638a25.479 25.479 0 011.337 2.765 5.135 5.135 0 00.742.654 10.979 10.979 0 012.418 2.459.589.589 0 01-.985.645 10.024 10.024 0 00-2.171-2.193 3.436 3.436 0 01-1.089-1.118 24.091 24.091 0 00-1.283-2.657 23.522 23.522 0 01-.479-.876c-.58-1.1-1.266-1.767-1.884-1.832h-.085a.859.859 0 00-.571.218c-.045.139-.088.278-.126.4a9.267 9.267 0 001.023 2.005 7.847 7.847 0 01.744 1.4 25.15 25.15 0 01.856 3.074.585.585 0 01-1.154.193 25.751 25.751 0 00-.812-2.92 8.436 8.436 0 00-.634-1.168 27.305 27.305 0 01-.517-.876c-.5 2-.642 3.227-.427 3.746.511 1.214.873 2.036.877 2.044a.585.585 0 01-.293.769.565.565 0 01-.231.058zm1.313-10.121c.053 0 .106 0 .159.005a2.489 2.489 0 011.141.432c.1-.288.193-.558.279-.8l.066-.19.011-.033a12.676 12.676 0 00.83-3.077c.07-.679-.126-1.048-.275-1.13a.127.127 0 00-.061-.015.341.341 0 00-.2.094 18.121 18.121 0 00-2.104 4.719 2.53 2.53 0 01.154-.005z"/><path d="M7.594 27.45a.584.584 0 11.416-.168.584.584 0 01-.416.168z"/><path data-name="Path" d="M10.806 27.45a.584.584 0 11.416-.168.584.584 0 01-.416.168zm-1.46 4.672a.584.584 0 11.416-.168.584.584 0 01-.416.168zm15.185 1.753a7.3 7.3 0 01-2.6-.482.585.585 0 01.415-1.093 6.132 6.132 0 004.69-.136 6.132 6.132 0 003.219-3.412.585.585 0 111.094.414 7.324 7.324 0 01-2.679 3.409 7.323 7.323 0 01-4.139 1.3zm-6.276-9.106a.567.567 0 01-.207-.038.584.584 0 01-.339-.755 7.3 7.3 0 019.417-4.223.584.584 0 11-.415 1.092 6.132 6.132 0 00-7.91 3.548.584.584 0 01-.546.377z"/><path data-name="Path" d="M24.531 31.367h-.2a.583.583 0 11.048-1.164 3.627 3.627 0 003.773-3.475.584.584 0 111.168.047 4.8 4.8 0 01-4.789 4.592zm-4.205-4.386h-.027a.584.584 0 01-.558-.6 4.8 4.8 0 014.985-4.6.584.584 0 11-.047 1.168 3.633 3.633 0 00-3.772 3.479.584.584 0 01-.581.553z"/><path data-name="Shape" d="M24.53 28.909h-.1a2.281 2.281 0 01-1.553-3.901 2.281 2.281 0 013.243 3.207 2.263 2.263 0 01-1.59.694zm0-3.5a1.112 1.112 0 10.047 0z"/></g></svg>