<svg xmlns="http://www.w3.org/2000/svg" width="46.001" height="46.001"><g transform="translate(.001)" fill="#e1084d"><path d="M27.28 46a1.348 1.348 0 01-.348-2.65l.116-.031-.835-3.119a17.585 17.585 0 01-6.427 0l-.836 3.118.117.032a1.348 1.348 0 11-.7 2.6l-2.837-.76a1.348 1.348 0 01.344-2.65 1.362 1.362 0 01.353.047l.117.031.835-3.118a17.44 17.44 0 01-5.56-3.22L9.33 38.57l.085.085A1.347 1.347 0 117.51 40.56l-2.073-2.073a1.347 1.347 0 111.905-1.905l.086.085 2.29-2.289a17.44 17.44 0 01-3.22-5.56l-3.118.835.031.117a1.347 1.347 0 01-.952 1.651 1.346 1.346 0 01-1.651-.953L.046 27.63a1.348 1.348 0 012.6-.7l.031.117 3.123-.834a17.559 17.559 0 010-6.427l-3.119-.836-.032.117a1.348 1.348 0 01-2.6-.7L.81 15.53a1.348 1.348 0 012.6.7l-.032.116 3.119.836a17.453 17.453 0 013.219-5.56L7.428 9.334l-.085.085a1.348 1.348 0 11-1.906-1.906l2.076-2.076a1.348 1.348 0 011.906 1.905l-.086.086 2.29 2.29a17.433 17.433 0 015.56-3.22l-.836-3.118-.116.032a1.363 1.363 0 01-.352.047 1.348 1.348 0 01-.345-2.65L18.37.046a1.348 1.348 0 11.7 2.6l-.116.031.833 3.123a17.533 17.533 0 016.427 0l.836-3.119-.117-.032a1.347 1.347 0 11.7-2.6l2.837.76a1.348 1.348 0 01-.346 2.65 1.362 1.362 0 01-.352-.047l-.117-.032-.838 3.12a17.435 17.435 0 015.56 3.219l2.289-2.29-.085-.085a1.348 1.348 0 111.905-1.906l2.076 2.076a1.348 1.348 0 11-1.905 1.906l-.085-.085-2.29 2.29a17.42 17.42 0 013.218 5.558l3.119-.835-.031-.117a1.347 1.347 0 112.6-.7l.761 2.836a1.348 1.348 0 01-2.6.7l-.031-.117-3.118.836a17.533 17.533 0 010 6.427l3.118.835.032-.116a1.35 1.35 0 011.65-.953 1.346 1.346 0 01.952 1.651l-.76 2.837a1.348 1.348 0 01-2.6-.7l.031-.117-3.123-.833a17.435 17.435 0 01-3.219 5.56l2.29 2.289.085-.085a1.348 1.348 0 111.906 1.905l-2.076 2.076a1.348 1.348 0 01-1.906-1.905l.085-.085-2.29-2.29a17.433 17.433 0 01-5.56 3.22l.836 3.118.116-.031a1.362 1.362 0 01.353-.047 1.348 1.348 0 01.345 2.65l-2.837.76a1.352 1.352 0 01-.348.048zM23 8.2A14.8 14.8 0 1037.8 23 14.82 14.82 0 0023 8.2z"/><circle cx="1.5" cy="1.5" r="1.5" transform="translate(21 12)"/><circle data-name="Oval" cx="1.5" cy="1.5" r="1.5" transform="translate(21 31)"/><circle data-name="Oval" cx="1.5" cy="1.5" r="1.5" transform="translate(19 24)"/><circle data-name="Oval" cx="1.5" cy="1.5" r="1.5" transform="translate(24 24)"/><circle data-name="Oval" cx="1.5" cy="1.5" r="1.5" transform="translate(24 19)"/><circle data-name="Oval" cx="1.5" cy="1.5" r="1.5" transform="translate(19 19)"/><circle data-name="Oval" cx="1.5" cy="1.5" r="1.5" transform="translate(31 21)"/><circle data-name="Oval" cx="1.5" cy="1.5" r="1.5" transform="translate(12 21)"/><circle data-name="Oval" cx="1.5" cy="1.5" r="1.5" transform="translate(29 14)"/><circle data-name="Oval" cx="1.5" cy="1.5" r="1.5" transform="translate(14 29)"/><circle data-name="Oval" cx="1.5" cy="1.5" r="1.5" transform="translate(29 29)"/><circle data-name="Oval" cx="1.5" cy="1.5" r="1.5" transform="translate(14 14)"/></g></svg>